<svg width="277" height="128" viewBox="0 0 277 128" fill="none" xmlns="http://www.w3.org/2000/svg">
<g clip-path="url(#clip0_172_80)">
<path d="M269.794 54.9609C268.36 60.2997 266.927 65.6424 265.498 70.9813C264.577 73.5711 263.66 76.1609 262.739 78.7507C260.642 83.9964 258.474 89.211 256.011 94.2974C253.141 99.7566 249.699 104.847 246.036 109.794C245.849 110.007 245.667 110.225 245.48 110.442C243.118 112.799 240.756 115.16 238.391 117.516C238.177 117.687 237.963 117.862 237.754 118.033C235.174 119.683 232.591 121.333 230.012 122.983C228.201 123.756 226.395 124.533 224.585 125.305C223.808 125.554 223.031 125.802 222.258 126.055C219.675 126.575 217.091 127.091 214.508 127.612C211.925 127.74 209.338 127.868 206.754 127.996C204.167 127.786 201.576 127.581 198.989 127.371C196.417 126.785 193.846 126.198 191.274 125.616C190.995 125.519 190.711 125.418 190.431 125.321C188.132 124.241 185.832 123.162 183.532 122.079C181.644 120.65 179.62 119.4 177.966 117.676C175.064 114.651 175.052 114.663 171.847 117.551C170.55 118.433 169.256 119.318 167.959 120.2C163.103 123.112 157.874 125.127 152.436 126.629C149.872 127.002 147.304 127.375 144.74 127.748C142.165 128.175 139.562 127.752 136.979 128.004C134.396 127.651 131.816 127.293 129.233 126.94C123.993 125.418 118.927 123.523 114.565 120.106C114.134 119.769 113.648 119.59 113.279 120.231C108.586 123.115 103.544 125.158 98.2106 126.513C95.6235 126.921 93.0324 127.324 90.4453 127.732C87.8659 127.821 85.2826 127.911 82.7032 127.996C80.1161 127.631 77.5289 127.266 74.9418 126.901C73.0305 126.361 71.1154 125.822 69.2042 125.282C66.5394 123.993 63.824 122.793 61.4039 121.061C60.5959 120.483 59.9899 120.665 59.3994 121.337C54.5592 124.075 49.3305 125.725 43.9232 126.882C41.3399 127.126 38.7566 127.371 36.1734 127.616C33.5862 127.538 30.9952 127.46 28.408 127.383C25.8325 126.835 23.2531 126.284 20.6776 125.736C20.2426 125.445 19.7764 125.255 19.2442 125.263C17.1504 124.195 15.0527 123.131 12.9589 122.063C9.21027 119.299 5.92 116.115 3.65139 111.984C3.25516 111.257 2.87447 110.524 2.48601 109.79C1.72074 107.2 0.959355 104.614 0.194087 102.024C0.128048 99.446 0.0620101 96.8678 -0.00402832 94.2897C0.283433 91.7115 0.570894 89.1333 0.858355 86.5513C1.39443 83.9653 1.93439 81.3833 2.47047 78.7973C3.19301 76.2269 3.91166 73.6565 4.6342 71.0861C6.425 65.9259 8.21969 60.7657 10.0105 55.6054C12.2403 50.286 14.47 44.9705 16.6998 39.6511C17.9079 37.069 19.1121 34.4869 20.3203 31.9049C20.4485 31.6603 20.5766 31.4195 20.7048 31.1749C21.9518 28.8258 23.1988 26.4768 24.4496 24.1316C27.5806 18.4899 30.8903 12.988 35.7732 8.63146C35.9131 8.5111 36.0529 8.38685 36.1928 8.26648C38.6945 6.4804 41.2777 4.82245 44.0164 3.42464C48.9732 1.42112 54.1708 0.737753 59.4694 0.601856C64.6748 0.951307 69.8646 1.39006 74.5611 3.9993C75.5983 4.95058 76.616 5.92904 77.6843 6.84538C78.5506 7.58699 78.6088 9.43908 79.7975 9.30707C80.8425 9.19058 81.767 7.98304 82.7421 7.26084C85.3137 5.90963 87.8853 4.55842 90.4569 3.20721C95.4991 1.55702 100.736 0.893065 105.957 0.147569C108.54 0.100976 111.123 0.0504997 113.706 0.00390625C116.293 0.155335 118.885 0.302881 121.472 0.45431C126.961 1.2464 131.894 3.45571 136.563 6.3445C137.663 7.78501 138.824 7.82772 140.328 6.80655C141.699 5.87857 143.276 5.25732 144.764 4.50017C148.924 2.94706 153.174 1.71622 157.54 0.889182C158.449 0.78823 159.362 0.69116 160.271 0.590207C162.839 0.442661 165.411 0.295115 167.978 0.143687C170.558 0.291233 173.133 0.434896 175.712 0.582442C181.015 1.51431 186.275 2.57819 191.228 4.79915C193.232 6.15424 195.419 7.22978 197.307 8.77124C200.015 10.9844 200.022 10.9728 202.87 8.63146C204.167 7.83161 205.465 7.03175 206.758 6.22802C209.345 5.10589 211.933 3.98376 214.52 2.86164C219.597 1.47937 224.779 0.749402 230.019 0.399951C232.587 0.493138 235.151 0.582442 237.719 0.675629C243.079 1.52984 248.355 2.6908 253.273 5.10201C255.052 6.29014 256.831 7.47827 258.606 8.67029C262.662 12.3007 265.96 16.5058 268.326 21.4253C268.477 21.8096 268.625 22.1902 268.772 22.5746C268.966 23.122 269.161 23.6656 269.355 24.2131C270.182 26.7175 270.563 29.3228 271.099 31.8894C271.227 34.4714 271.359 37.0535 271.488 39.6355C270.92 42.1943 271.103 44.8229 270.753 47.4011C270.439 49.921 270.116 52.441 269.794 54.9609ZM76.5694 23.3861C76.515 22.6794 76.484 22.26 76.449 21.8407C75.8158 14.3081 72.2536 10.2389 64.8845 8.6237C52.0886 5.82032 41.0291 10.4098 34.4059 21.6699C24.4146 38.6571 16.8202 56.7237 11.0904 75.563C9.09762 82.1132 7.56319 88.7839 7.35343 95.6875C7.01546 107.01 12.5083 115.835 23.0783 118.709C36.1384 122.261 48.6973 120.797 59.7063 112.03C60.3939 111.483 60.7979 111.184 61.5943 111.956C68.0388 118.208 76.01 120.669 84.7504 120.615C95.3438 120.549 105.277 118.25 113.256 110.609C114.122 109.778 114.429 110.45 114.899 110.97C118.842 115.311 123.709 118.212 129.381 119.466C146.558 123.259 161.258 118.503 173.642 106.183C174.633 105.196 175.538 104.125 176.435 103.142C176.645 103.224 176.73 103.228 176.75 103.267C176.901 103.55 177.049 103.837 177.177 104.133C180.176 111.122 185.35 115.793 192.455 118.344C201.001 121.411 209.703 121.31 218.416 119.268C230.416 116.456 238.826 108.854 245.15 98.6694C252.022 87.6035 256.497 75.497 259.989 63.0293C262.677 53.4311 264.748 43.7202 263.742 33.6172C262.506 21.1923 255.149 11.9124 243.305 9.24494C226.776 5.52135 211.719 8.19271 199.537 21.0525C199.005 21.6155 198.589 22.3804 197.882 21.1302C194.106 14.4518 188.159 10.6505 180.867 9.07022C165.675 5.7815 151.193 7.00846 138.292 16.7154C137.686 17.1697 137.371 17.1542 136.909 16.5291C133.658 12.1648 129.074 9.92831 123.966 8.58487C117.214 6.81043 110.362 7.24142 103.548 7.94033C94.5591 8.86055 86.4674 11.9124 80.2482 18.8315C79.0206 20.2022 77.929 21.697 76.5694 23.3861Z" fill="#2C2C2C"/>
<path d="M76.5696 23.3862C77.9292 21.6972 79.0208 20.2023 80.2522 18.8317C86.4715 11.9126 94.5631 8.8607 103.552 7.94047C110.366 7.24157 117.218 6.81058 123.97 8.58502C129.074 9.92846 133.662 12.1649 136.913 16.5292C137.375 17.1504 137.694 17.1699 138.296 16.7156C151.197 7.0086 165.675 5.78164 180.871 9.07037C188.163 10.6507 194.114 14.4519 197.886 21.1303C198.589 22.3767 199.005 21.6118 199.541 21.0527C211.719 8.19674 226.78 5.5215 243.309 9.24509C255.157 11.9126 262.51 21.1924 263.746 33.6174C264.752 43.7204 262.681 53.4312 259.993 63.0295C256.501 75.4971 252.026 87.6036 245.154 98.6696C238.834 108.85 230.42 116.453 218.42 119.268C209.707 121.31 201.005 121.415 192.459 118.344C185.354 115.793 180.18 111.122 177.181 104.133C177.053 103.838 176.905 103.55 176.754 103.267C176.734 103.228 176.649 103.224 176.439 103.143C175.542 104.125 174.637 105.197 173.646 106.183C161.266 118.503 146.566 123.259 129.385 119.466C123.713 118.212 118.842 115.311 114.903 110.97C114.433 110.45 114.126 109.778 113.26 110.609C105.281 118.25 95.3478 120.553 84.7545 120.615C76.0141 120.669 68.0429 118.208 61.5983 111.956C60.802 111.184 60.398 111.479 59.7104 112.03C48.7053 120.798 36.1425 122.261 23.0824 118.709C12.5124 115.835 7.01952 107.01 7.35748 95.6876C7.56337 88.784 9.10167 82.1134 11.0945 75.5631C16.8243 56.7238 24.4148 38.6572 34.4099 21.67C41.0332 10.4099 52.0927 5.82047 64.8886 8.62384C72.2577 10.2391 75.8199 14.3082 76.4531 21.8409C76.4841 22.2602 76.5113 22.6795 76.5696 23.3862ZM139.807 111.844C147.242 111.918 153.912 109.976 159.964 106.031C170.775 98.9802 176.789 88.6404 179.982 76.4329C180.98 72.62 181.804 68.7566 181.268 64.7612C180.631 59.9893 177.748 56.9063 173.025 55.9667C169.758 55.3183 166.471 55.4542 163.189 55.8618C156.309 56.7161 152.296 60.2843 150.688 66.9822C149.729 70.9775 151.271 73.7033 155.175 74.8914C155.73 75.0584 156.297 75.2525 156.865 75.2874C157.797 75.3457 158.131 75.6757 157.847 76.627C156.69 80.5137 155.066 84.148 152.052 86.9785C149.752 89.1335 147.114 90.4886 143.828 90.108C141.392 89.8246 139.966 88.4812 139.632 86.0389C139.376 84.1674 139.508 82.292 139.912 80.4515C142.425 68.9818 146.617 58.0945 151.473 47.444C152.863 44.3921 154.297 41.3441 156.628 38.8436C158.931 36.3703 161.709 35.1278 165.123 35.5782C167.52 35.8965 168.285 36.9566 167.78 39.2979C167.52 40.4938 167.089 41.647 166.786 42.8351C165.791 46.7761 167.186 49.5368 171.094 50.6007C176.777 52.1499 182.041 51.1132 186.353 46.9508C190.21 43.2234 191.321 38.2806 191.601 33.1631C191.919 27.335 189.437 22.9319 184.34 20.047C180.25 17.7329 175.755 16.933 171.148 16.6263C156.659 15.6595 144.589 20.082 135.973 32.336C132.085 37.8651 129.09 43.8563 126.448 50.0338C121.437 61.7753 117.304 73.7887 116.321 86.6252C115.758 93.9598 117.078 100.863 122.793 106.14C127.633 110.601 133.6 111.929 139.807 111.844ZM208.378 111.774C209.773 111.786 212.22 111.619 214.64 111.18C224.903 109.305 232.028 103.084 237.326 94.515C244.163 83.4491 248.813 71.4318 252.142 58.906C254.166 51.284 255.751 43.5728 255.238 35.5976C254.644 26.376 250.014 20.0897 241.444 17.8532C232.914 15.6284 224.414 16.1215 216.256 19.748C208.744 23.0872 203.884 29.125 200.17 36.1683C194.642 46.6558 190.715 57.7838 187.479 69.1565C185.284 76.8716 183.614 84.6954 183.87 92.7949C184.162 101.993 189.072 108.19 197.937 110.66C201.005 111.518 204.14 111.774 208.378 111.774ZM96.7385 51.7577C98.2069 47.8866 99.8812 44.4853 101.73 41.1577C102.161 40.3851 102.767 40.3501 103.513 40.354C106.097 40.3656 108.68 40.3889 111.263 40.3035C115.866 40.156 120.431 39.7716 124.533 37.3526C129.062 34.6812 131.086 30.5965 130.628 25.4868C130.204 20.7381 126.557 18.7618 122.587 17.2941C121.985 17.0728 121.34 16.9602 120.718 16.7932C117.49 15.939 114.192 15.974 110.898 16.1137C105.331 16.3506 99.8229 16.9136 94.6836 19.3442C88.1535 22.4349 84.1446 27.9718 80.7961 33.994C74.3127 45.6579 69.5462 58.0479 65.9879 70.9038C64.0728 77.8268 62.5617 84.8469 62.6277 92.065C62.6938 99.749 66.019 105.74 73.0851 109.041C83.2822 113.797 93.3628 112.438 103.047 107.406C107.977 104.843 110.929 100.619 111.415 94.9343C111.873 89.5645 109.519 86.3107 104.302 85.0371C100.409 84.0897 96.4744 84.2955 92.5587 84.843C90.2279 85.1691 87.9243 85.7011 85.3683 86.1903C86.6036 81.826 87.7806 77.6909 88.9382 73.548C89.2063 72.5889 89.6336 72.255 90.7368 72.4569C93.9766 73.0548 97.2629 73.3616 100.565 73.2101C108.505 72.8452 113.244 69.3856 115.517 62.3189C117.443 56.3317 115.187 52.6469 108.983 51.5908C104.993 50.9074 101.019 51.3733 96.7385 51.7577ZM41.5654 85.8564C42.556 83.7286 43.4028 81.8688 44.2846 80.0244C50.7603 66.4619 57.6321 53.074 63.0356 39.0222C64.8614 34.2735 66.8037 29.5132 66.7959 24.2909C66.7882 20.0664 64.4496 17.5892 60.2232 17.1349C52.0577 16.2652 46.0482 19.5811 41.9966 26.5856C32.8133 42.4623 25.7433 59.2632 20.2738 76.7474C18.2266 83.286 16.4475 89.91 16.3698 96.8253C16.2882 103.907 19.9475 108.846 26.8116 110.551C34.0176 112.345 41.1963 111.77 48.1071 109.068C55.0722 106.346 58.8674 101.112 59.5861 93.6647C59.893 90.4653 58.4867 87.9958 55.5927 86.5941C53.5688 85.6118 51.409 85.34 49.1948 85.2817C46.7436 85.2235 44.3157 85.5031 41.5654 85.8564Z" fill="white"/>
<path d="M206.611 84.5436C206.976 81.2976 208.005 77.6983 209.12 74.1261C212.605 62.9708 216.493 51.9631 221.741 41.4951C222.961 39.0606 224.391 36.7038 227.393 36.0631C231.826 35.1196 233.978 37.1348 233.333 41.6233C232.89 44.6984 232.113 47.6921 231.224 50.6624C227.883 61.7982 223.952 72.7128 219.092 83.2817C218.335 84.928 217.422 86.4889 216.221 87.8595C215.402 88.7914 214.469 89.5796 213.281 90.0028C209.299 91.4161 206.382 89.2496 206.611 84.5436Z" fill="white"/>
</g>
<defs>
<clipPath id="clip0_172_80">
<rect width="277" height="128" fill="white"/>
</clipPath>
</defs>
</svg>
