<svg width="367" height="367" viewBox="0 0 367 367" fill="none" xmlns="http://www.w3.org/2000/svg">
<path d="M251.981 33.7213C305.132 0.648263 366.51 62.0263 333.437 115.176V115.176C317.906 140.136 323.065 172.713 345.549 191.652V191.652C393.428 231.98 354.021 309.321 293.252 294.291V294.291C264.715 287.233 235.326 302.207 224.262 329.443V329.443C200.703 387.44 114.97 373.861 110.486 311.422V311.422C108.38 282.101 85.0568 258.778 55.7356 256.672V256.672C-6.7036 252.188 -20.2824 166.455 37.7152 142.895V142.895C64.9506 131.832 79.925 102.443 72.8669 73.9062V73.9062C57.8368 13.1374 135.178 -26.2698 175.506 21.6089V21.6089C194.445 44.0925 227.022 49.2523 251.981 33.7213V33.7213Z" fill="#C1272D"/>
</svg>
